<mxfile host="app.diagrams.net" modified="2023-09-11T09:29:18.494Z" agent="Mozilla/5.0 (Windows NT 10.0; Win64; x64) AppleWebKit/537.36 (KHTML, like Gecko) Chrome/115.0.0.0 Safari/537.36" etag="BWgPcrBvRBcvENxHJLsH" version="21.7.4" type="google" pages="3">
  <diagram id="R2lEEEUBdFMjLlhIrx00" name="Use Case">
    <mxGraphModel grid="1" page="1" gridSize="10" guides="1" tooltips="1" connect="1" arrows="1" fold="1" pageScale="1" pageWidth="850" pageHeight="1100" math="0" shadow="0" extFonts="Permanent Marker^https://fonts.googleapis.com/css?family=Permanent+Marker">
      <root>
        <mxCell id="0" />
        <mxCell id="1" parent="0" />
        <mxCell id="thzCaJjNnmUnmCXN477P-2" value="" style="edgeStyle=orthogonalEdgeStyle;rounded=0;orthogonalLoop=1;jettySize=auto;html=1;" edge="1" parent="1">
          <mxGeometry relative="1" as="geometry">
            <mxPoint x="475" y="270" as="targetPoint" />
          </mxGeometry>
        </mxCell>
        <mxCell id="jPH9L3uvW8ZsKooNiB7_-4" value="&amp;lt;&amp;lt;extend&amp;gt;&amp;gt;" style="html=1;verticalAlign=bottom;labelBackgroundColor=none;endArrow=open;endFill=0;dashed=1;rounded=0;" edge="1" parent="1" source="FistdgcUCSIYOlRbFlK6-1" target="jPH9L3uvW8ZsKooNiB7_-33">
          <mxGeometry width="160" relative="1" as="geometry">
            <mxPoint x="190" y="370" as="sourcePoint" />
            <mxPoint x="350" y="370" as="targetPoint" />
          </mxGeometry>
        </mxCell>
        <mxCell id="jPH9L3uvW8ZsKooNiB7_-7" value="Đăng nhập" style="ellipse;whiteSpace=wrap;html=1;" vertex="1" parent="1">
          <mxGeometry x="800" y="60" width="110" height="50" as="geometry" />
        </mxCell>
        <mxCell id="jPH9L3uvW8ZsKooNiB7_-9" value="Tạo công việc" style="ellipse;whiteSpace=wrap;html=1;" vertex="1" parent="1">
          <mxGeometry x="630" y="215" width="110" height="50" as="geometry" />
        </mxCell>
        <mxCell id="cyq8_tBMwF_UiFGmE5hG-2" value="Người tạo việc" style="shape=umlActor;verticalLabelPosition=bottom;verticalAlign=top;html=1;" vertex="1" parent="1">
          <mxGeometry x="500" y="219" width="30" height="60" as="geometry" />
        </mxCell>
        <mxCell id="jPH9L3uvW8ZsKooNiB7_-10" value="Quản trị" style="shape=umlActor;verticalLabelPosition=bottom;verticalAlign=top;html=1;" vertex="1" parent="1">
          <mxGeometry x="40" y="115" width="30" height="60" as="geometry" />
        </mxCell>
        <mxCell id="jPH9L3uvW8ZsKooNiB7_-13" value="Thanh toán" style="ellipse;whiteSpace=wrap;html=1;" vertex="1" parent="1">
          <mxGeometry x="230" y="215" width="110" height="50" as="geometry" />
        </mxCell>
        <mxCell id="jPH9L3uvW8ZsKooNiB7_-14" value="" style="endArrow=none;startArrow=none;endFill=0;startFill=0;endSize=8;html=1;verticalAlign=bottom;labelBackgroundColor=none;strokeWidth=3;rounded=0;exitX=1;exitY=0.3333333333333333;exitDx=0;exitDy=0;exitPerimeter=0;" edge="1" parent="1" source="MIvgXgeiTokzL89-4NUn-5" target="jPH9L3uvW8ZsKooNiB7_-7">
          <mxGeometry width="160" relative="1" as="geometry">
            <mxPoint x="670" y="150" as="sourcePoint" />
            <mxPoint x="828.0029963302159" y="83.49850183489195" as="targetPoint" />
          </mxGeometry>
        </mxCell>
        <mxCell id="jPH9L3uvW8ZsKooNiB7_-22" value="Người tham gia&amp;nbsp;" style="shape=umlActor;verticalLabelPosition=bottom;verticalAlign=top;html=1;" vertex="1" parent="1">
          <mxGeometry x="500" y="50" width="30" height="60" as="geometry" />
        </mxCell>
        <mxCell id="jPH9L3uvW8ZsKooNiB7_-23" value="" style="endArrow=block;html=1;rounded=0;align=center;verticalAlign=bottom;endFill=0;labelBackgroundColor=none;endSize=8;exitX=1;exitY=0.3333333333333333;exitDx=0;exitDy=0;exitPerimeter=0;entryX=0;entryY=1;entryDx=0;entryDy=0;entryPerimeter=0;" edge="1" parent="1" source="cyq8_tBMwF_UiFGmE5hG-2" target="MIvgXgeiTokzL89-4NUn-5">
          <mxGeometry relative="1" as="geometry">
            <mxPoint x="585" y="350" as="sourcePoint" />
            <mxPoint x="650" y="180" as="targetPoint" />
          </mxGeometry>
        </mxCell>
        <mxCell id="jPH9L3uvW8ZsKooNiB7_-25" value="" style="endArrow=block;html=1;rounded=0;align=center;verticalAlign=bottom;endFill=0;labelBackgroundColor=none;endSize=8;exitX=1;exitY=0.3333333333333333;exitDx=0;exitDy=0;exitPerimeter=0;entryX=0;entryY=0.3333333333333333;entryDx=0;entryDy=0;entryPerimeter=0;" edge="1" parent="1" source="jPH9L3uvW8ZsKooNiB7_-22" target="MIvgXgeiTokzL89-4NUn-5">
          <mxGeometry relative="1" as="geometry">
            <mxPoint x="525" y="250" as="sourcePoint" />
            <mxPoint x="657.5" y="126" as="targetPoint" />
          </mxGeometry>
        </mxCell>
        <mxCell id="jPH9L3uvW8ZsKooNiB7_-29" value="" style="endArrow=none;startArrow=none;endFill=0;startFill=0;endSize=8;html=1;verticalAlign=bottom;labelBackgroundColor=none;strokeWidth=3;rounded=0;entryX=1;entryY=0.3333333333333333;entryDx=0;entryDy=0;entryPerimeter=0;" edge="1" parent="1" source="jPH9L3uvW8ZsKooNiB7_-9" target="cyq8_tBMwF_UiFGmE5hG-2">
          <mxGeometry width="160" relative="1" as="geometry">
            <mxPoint x="695" y="180" as="sourcePoint" />
            <mxPoint x="845.7083162496347" y="146.0906288438323" as="targetPoint" />
          </mxGeometry>
        </mxCell>
        <mxCell id="jPH9L3uvW8ZsKooNiB7_-30" value="" style="endArrow=none;startArrow=none;endFill=0;startFill=0;endSize=8;html=1;verticalAlign=bottom;labelBackgroundColor=none;strokeWidth=3;rounded=0;entryX=0;entryY=0.3333333333333333;entryDx=0;entryDy=0;entryPerimeter=0;" edge="1" parent="1" source="jPH9L3uvW8ZsKooNiB7_-13" target="cyq8_tBMwF_UiFGmE5hG-2">
          <mxGeometry width="160" relative="1" as="geometry">
            <mxPoint x="705" y="190" as="sourcePoint" />
            <mxPoint x="855.7083162496347" y="156.0906288438323" as="targetPoint" />
          </mxGeometry>
        </mxCell>
        <mxCell id="jPH9L3uvW8ZsKooNiB7_-33" value="Đăng ký" style="ellipse;whiteSpace=wrap;html=1;" vertex="1" parent="1">
          <mxGeometry x="800" y="-60" width="110" height="50" as="geometry" />
        </mxCell>
        <mxCell id="jPH9L3uvW8ZsKooNiB7_-36" value="Đăng xuất" style="ellipse;whiteSpace=wrap;html=1;" vertex="1" parent="1">
          <mxGeometry x="800" y="150" width="110" height="50" as="geometry" />
        </mxCell>
        <mxCell id="jPH9L3uvW8ZsKooNiB7_-37" value="" style="endArrow=none;startArrow=none;endFill=0;startFill=0;endSize=8;html=1;verticalAlign=bottom;labelBackgroundColor=none;strokeWidth=3;rounded=0;exitX=1;exitY=0.3333333333333333;exitDx=0;exitDy=0;exitPerimeter=0;" edge="1" parent="1" source="MIvgXgeiTokzL89-4NUn-5" target="jPH9L3uvW8ZsKooNiB7_-36">
          <mxGeometry width="160" relative="1" as="geometry">
            <mxPoint x="665" y="150" as="sourcePoint" />
            <mxPoint x="828.0029963302159" y="213.49850183489195" as="targetPoint" />
          </mxGeometry>
        </mxCell>
        <mxCell id="MIvgXgeiTokzL89-4NUn-5" value="Khách hàng" style="shape=umlActor;verticalLabelPosition=bottom;verticalAlign=top;html=1;" vertex="1" parent="1">
          <mxGeometry x="650" y="115" width="30" height="60" as="geometry" />
        </mxCell>
        <mxCell id="jPH9L3uvW8ZsKooNiB7_-47" value="Tìm kiếm &lt;br&gt;công việc" style="ellipse;whiteSpace=wrap;html=1;" vertex="1" parent="1">
          <mxGeometry x="290" y="40" width="110" height="50" as="geometry" />
        </mxCell>
        <mxCell id="jPH9L3uvW8ZsKooNiB7_-48" value="" style="endArrow=none;startArrow=none;endFill=0;startFill=0;endSize=8;html=1;verticalAlign=bottom;labelBackgroundColor=none;strokeWidth=3;rounded=0;exitX=0;exitY=0.3333333333333333;exitDx=0;exitDy=0;exitPerimeter=0;" edge="1" parent="1" source="jPH9L3uvW8ZsKooNiB7_-22" target="jPH9L3uvW8ZsKooNiB7_-47">
          <mxGeometry width="160" relative="1" as="geometry">
            <mxPoint x="670" y="290" as="sourcePoint" />
            <mxPoint x="828.0029963302159" y="323.49850183489195" as="targetPoint" />
          </mxGeometry>
        </mxCell>
        <mxCell id="jPH9L3uvW8ZsKooNiB7_-55" value="Quản lí công việc đã tạo" style="ellipse;whiteSpace=wrap;html=1;" vertex="1" parent="1">
          <mxGeometry x="630" y="300" width="110" height="50" as="geometry" />
        </mxCell>
        <mxCell id="jPH9L3uvW8ZsKooNiB7_-57" value="Thay đổi trạng thái công việc" style="ellipse;whiteSpace=wrap;html=1;" vertex="1" parent="1">
          <mxGeometry x="820" y="265" width="110" height="50" as="geometry" />
        </mxCell>
        <mxCell id="jPH9L3uvW8ZsKooNiB7_-58" value="" style="endArrow=none;startArrow=none;endFill=0;startFill=0;endSize=8;html=1;verticalAlign=bottom;labelBackgroundColor=none;strokeWidth=3;rounded=0;entryX=1;entryY=0.3333333333333333;entryDx=0;entryDy=0;entryPerimeter=0;" edge="1" parent="1" source="jPH9L3uvW8ZsKooNiB7_-55" target="cyq8_tBMwF_UiFGmE5hG-2">
          <mxGeometry width="160" relative="1" as="geometry">
            <mxPoint x="645.0467006430667" y="334.0326904501467" as="sourcePoint" />
            <mxPoint x="540" y="230" as="targetPoint" />
          </mxGeometry>
        </mxCell>
        <mxCell id="jPH9L3uvW8ZsKooNiB7_-60" value="" style="endArrow=none;startArrow=none;endFill=0;startFill=0;endSize=8;html=1;verticalAlign=bottom;labelBackgroundColor=none;strokeWidth=3;rounded=0;exitX=0;exitY=0.3333333333333333;exitDx=0;exitDy=0;exitPerimeter=0;" edge="1" parent="1" source="jPH9L3uvW8ZsKooNiB7_-10" target="jPH9L3uvW8ZsKooNiB7_-61">
          <mxGeometry width="160" relative="1" as="geometry">
            <mxPoint x="65" y="145" as="sourcePoint" />
            <mxPoint x="-30" y="135" as="targetPoint" />
          </mxGeometry>
        </mxCell>
        <mxCell id="jPH9L3uvW8ZsKooNiB7_-61" value="Quản lý tài khoản khách hàng" style="ellipse;whiteSpace=wrap;html=1;" vertex="1" parent="1">
          <mxGeometry x="-200" y="-30" width="110" height="50" as="geometry" />
        </mxCell>
        <mxCell id="GkW7qO_hABvK1b0ZJFky-1" value="Quản lý các công việc" style="ellipse;whiteSpace=wrap;html=1;" vertex="1" parent="1">
          <mxGeometry x="-320" y="110" width="110" height="50" as="geometry" />
        </mxCell>
        <mxCell id="GkW7qO_hABvK1b0ZJFky-3" value="Quản lý thu chi" style="ellipse;whiteSpace=wrap;html=1;" vertex="1" parent="1">
          <mxGeometry x="-200" y="250" width="110" height="50" as="geometry" />
        </mxCell>
        <mxCell id="BQV47WszCAYxk8QkaqWl-1" value="&amp;lt;&amp;lt;extend&amp;gt;&amp;gt;" style="html=1;verticalAlign=bottom;labelBackgroundColor=none;endArrow=open;endFill=0;dashed=1;rounded=0;" edge="1" parent="1" source="jPH9L3uvW8ZsKooNiB7_-55" target="jPH9L3uvW8ZsKooNiB7_-57">
          <mxGeometry width="160" relative="1" as="geometry">
            <mxPoint x="1040" y="395" as="sourcePoint" />
            <mxPoint x="950" y="395" as="targetPoint" />
          </mxGeometry>
        </mxCell>
        <mxCell id="BQV47WszCAYxk8QkaqWl-2" value="Chỉnh sửa công việc" style="ellipse;whiteSpace=wrap;html=1;" vertex="1" parent="1">
          <mxGeometry x="820" y="340" width="110" height="50" as="geometry" />
        </mxCell>
        <mxCell id="BQV47WszCAYxk8QkaqWl-3" value="&amp;lt;&amp;lt;extend&amp;gt;&amp;gt;" style="html=1;verticalAlign=bottom;labelBackgroundColor=none;endArrow=open;endFill=0;dashed=1;rounded=0;" edge="1" parent="1" source="jPH9L3uvW8ZsKooNiB7_-55" target="BQV47WszCAYxk8QkaqWl-2">
          <mxGeometry width="160" relative="1" as="geometry">
            <mxPoint x="1007" y="203" as="sourcePoint" />
            <mxPoint x="729" y="470" as="targetPoint" />
          </mxGeometry>
        </mxCell>
        <mxCell id="i2PJcDpWnC0Yciy2tg1u-1" value="Quản lý công việc tham gia" style="ellipse;whiteSpace=wrap;html=1;" vertex="1" parent="1">
          <mxGeometry x="315" y="-50" width="110" height="50" as="geometry" />
        </mxCell>
        <mxCell id="i2PJcDpWnC0Yciy2tg1u-2" value="" style="endArrow=none;startArrow=none;endFill=0;startFill=0;endSize=8;html=1;verticalAlign=bottom;labelBackgroundColor=none;strokeWidth=3;rounded=0;" edge="1" parent="1" target="i2PJcDpWnC0Yciy2tg1u-1">
          <mxGeometry width="160" relative="1" as="geometry">
            <mxPoint x="500" y="70" as="sourcePoint" />
            <mxPoint x="828.0029963302159" y="243.49850183489195" as="targetPoint" />
          </mxGeometry>
        </mxCell>
        <mxCell id="FistdgcUCSIYOlRbFlK6-1" value="Đăng nhập" style="ellipse;whiteSpace=wrap;html=1;" vertex="1" parent="1">
          <mxGeometry x="800" y="60" width="110" height="50" as="geometry" />
        </mxCell>
        <mxCell id="p-wq81mA6RH3Jp0lScBd-1" value="Xem lịch sử giao dịch" style="ellipse;whiteSpace=wrap;html=1;" vertex="1" parent="1">
          <mxGeometry x="230" y="329" width="110" height="50" as="geometry" />
        </mxCell>
        <mxCell id="p-wq81mA6RH3Jp0lScBd-2" value="&amp;lt;&amp;lt;extend&amp;gt;&amp;gt;" style="html=1;verticalAlign=bottom;labelBackgroundColor=none;endArrow=open;endFill=0;dashed=1;rounded=0;" edge="1" parent="1" source="jPH9L3uvW8ZsKooNiB7_-13" target="p-wq81mA6RH3Jp0lScBd-1">
          <mxGeometry width="160" relative="1" as="geometry">
            <mxPoint x="774.5064189849039" y="699.9987269961256" as="sourcePoint" />
            <mxPoint x="380" y="365" as="targetPoint" />
          </mxGeometry>
        </mxCell>
        <mxCell id="p-wq81mA6RH3Jp0lScBd-3" value="Đánh giá người tham gia" style="ellipse;whiteSpace=wrap;html=1;" vertex="1" parent="1">
          <mxGeometry x="820" y="420" width="110" height="50" as="geometry" />
        </mxCell>
        <mxCell id="p-wq81mA6RH3Jp0lScBd-4" value="&amp;lt;&amp;lt;extend&amp;gt;&amp;gt;" style="html=1;verticalAlign=bottom;labelBackgroundColor=none;endArrow=open;endFill=0;dashed=1;rounded=0;" edge="1" parent="1" source="jPH9L3uvW8ZsKooNiB7_-55" target="p-wq81mA6RH3Jp0lScBd-3">
          <mxGeometry width="160" relative="1" as="geometry">
            <mxPoint x="729" y="480" as="sourcePoint" />
            <mxPoint x="729" y="550" as="targetPoint" />
          </mxGeometry>
        </mxCell>
        <mxCell id="ps6AS3u2AXBnxrDnGwN7-1" value="Gửi yêu cầu xem xét" style="ellipse;whiteSpace=wrap;html=1;" vertex="1" parent="1">
          <mxGeometry x="750" y="-130" width="110" height="50" as="geometry" />
        </mxCell>
        <mxCell id="ps6AS3u2AXBnxrDnGwN7-2" value="" style="endArrow=none;startArrow=none;endFill=0;startFill=0;endSize=8;html=1;verticalAlign=bottom;labelBackgroundColor=none;strokeWidth=3;rounded=0;entryX=0.75;entryY=0.1;entryDx=0;entryDy=0;entryPerimeter=0;" edge="1" parent="1" source="ps6AS3u2AXBnxrDnGwN7-1" target="MIvgXgeiTokzL89-4NUn-5">
          <mxGeometry width="160" relative="1" as="geometry">
            <mxPoint x="695" y="48" as="sourcePoint" />
            <mxPoint x="490" y="97" as="targetPoint" />
          </mxGeometry>
        </mxCell>
        <mxCell id="ps6AS3u2AXBnxrDnGwN7-4" value="Giải quyết yêu cầu" style="ellipse;whiteSpace=wrap;html=1;" vertex="1" parent="1">
          <mxGeometry x="170" y="110" width="110" height="50" as="geometry" />
        </mxCell>
        <mxCell id="ps6AS3u2AXBnxrDnGwN7-5" value="" style="endArrow=none;startArrow=none;endFill=0;startFill=0;endSize=8;html=1;verticalAlign=bottom;labelBackgroundColor=none;strokeWidth=3;rounded=0;entryX=1;entryY=0.3333333333333333;entryDx=0;entryDy=0;entryPerimeter=0;" edge="1" parent="1" source="ps6AS3u2AXBnxrDnGwN7-4" target="jPH9L3uvW8ZsKooNiB7_-10">
          <mxGeometry width="160" relative="1" as="geometry">
            <mxPoint x="285" y="223" as="sourcePoint" />
            <mxPoint x="255" y="290" as="targetPoint" />
          </mxGeometry>
        </mxCell>
        <mxCell id="ps6AS3u2AXBnxrDnGwN7-6" value="Quản lý danh sách tasker" style="ellipse;whiteSpace=wrap;html=1;" vertex="1" parent="1">
          <mxGeometry x="360" y="390" width="110" height="50" as="geometry" />
        </mxCell>
        <mxCell id="ps6AS3u2AXBnxrDnGwN7-7" value="" style="endArrow=none;startArrow=none;endFill=0;startFill=0;endSize=8;html=1;verticalAlign=bottom;labelBackgroundColor=none;strokeWidth=3;rounded=0;entryX=0.5;entryY=0.5;entryDx=0;entryDy=0;entryPerimeter=0;" edge="1" parent="1" source="ps6AS3u2AXBnxrDnGwN7-6" target="cyq8_tBMwF_UiFGmE5hG-2">
          <mxGeometry width="160" relative="1" as="geometry">
            <mxPoint x="525" y="385" as="sourcePoint" />
            <mxPoint x="520" y="280" as="targetPoint" />
          </mxGeometry>
        </mxCell>
        <mxCell id="ps6AS3u2AXBnxrDnGwN7-10" value="Xem thông tin người tham gia công việc" style="ellipse;whiteSpace=wrap;html=1;" vertex="1" parent="1">
          <mxGeometry x="560" y="390" width="110" height="50" as="geometry" />
        </mxCell>
        <mxCell id="ps6AS3u2AXBnxrDnGwN7-11" value="" style="endArrow=none;startArrow=none;endFill=0;startFill=0;endSize=8;html=1;verticalAlign=bottom;labelBackgroundColor=none;strokeWidth=3;rounded=0;entryX=0.5;entryY=0.5;entryDx=0;entryDy=0;entryPerimeter=0;" edge="1" parent="1" source="ps6AS3u2AXBnxrDnGwN7-10" target="cyq8_tBMwF_UiFGmE5hG-2">
          <mxGeometry width="160" relative="1" as="geometry">
            <mxPoint x="690" y="385" as="sourcePoint" />
            <mxPoint x="680" y="249" as="targetPoint" />
          </mxGeometry>
        </mxCell>
        <mxCell id="ps6AS3u2AXBnxrDnGwN7-14" value="Xem lịch sử" style="ellipse;whiteSpace=wrap;html=1;" vertex="1" parent="1">
          <mxGeometry x="610" y="-110" width="110" height="50" as="geometry" />
        </mxCell>
        <mxCell id="ps6AS3u2AXBnxrDnGwN7-15" value="" style="endArrow=none;startArrow=none;endFill=0;startFill=0;endSize=8;html=1;verticalAlign=bottom;labelBackgroundColor=none;strokeWidth=3;rounded=0;entryX=0.5;entryY=0;entryDx=0;entryDy=0;entryPerimeter=0;" edge="1" parent="1" source="ps6AS3u2AXBnxrDnGwN7-14" target="MIvgXgeiTokzL89-4NUn-5">
          <mxGeometry width="160" relative="1" as="geometry">
            <mxPoint x="565" y="48" as="sourcePoint" />
            <mxPoint x="660" y="110" as="targetPoint" />
          </mxGeometry>
        </mxCell>
        <mxCell id="ps6AS3u2AXBnxrDnGwN7-16" value="Xem thông tin công việc" style="ellipse;whiteSpace=wrap;html=1;" vertex="1" parent="1">
          <mxGeometry x="390" y="-120" width="110" height="50" as="geometry" />
        </mxCell>
        <mxCell id="ps6AS3u2AXBnxrDnGwN7-17" value="" style="endArrow=none;startArrow=none;endFill=0;startFill=0;endSize=8;html=1;verticalAlign=bottom;labelBackgroundColor=none;strokeWidth=3;rounded=0;exitX=0.25;exitY=0.1;exitDx=0;exitDy=0;exitPerimeter=0;" edge="1" parent="1" source="jPH9L3uvW8ZsKooNiB7_-22" target="ps6AS3u2AXBnxrDnGwN7-16">
          <mxGeometry width="160" relative="1" as="geometry">
            <mxPoint x="510" y="80" as="sourcePoint" />
            <mxPoint x="838.0029963302159" y="253.49850183489195" as="targetPoint" />
          </mxGeometry>
        </mxCell>
        <mxCell id="ps6AS3u2AXBnxrDnGwN7-18" value="Chat" style="ellipse;whiteSpace=wrap;html=1;" vertex="1" parent="1">
          <mxGeometry x="510" y="-50" width="110" height="50" as="geometry" />
        </mxCell>
        <mxCell id="ps6AS3u2AXBnxrDnGwN7-19" value="" style="endArrow=none;startArrow=none;endFill=0;startFill=0;endSize=8;html=1;verticalAlign=bottom;labelBackgroundColor=none;strokeWidth=3;rounded=0;entryX=0.25;entryY=0.1;entryDx=0;entryDy=0;entryPerimeter=0;" edge="1" parent="1" source="ps6AS3u2AXBnxrDnGwN7-18" target="MIvgXgeiTokzL89-4NUn-5">
          <mxGeometry width="160" relative="1" as="geometry">
            <mxPoint x="475" y="118" as="sourcePoint" />
            <mxPoint x="568" y="191" as="targetPoint" />
          </mxGeometry>
        </mxCell>
        <mxCell id="ps6AS3u2AXBnxrDnGwN7-20" value="" style="endArrow=none;startArrow=none;endFill=0;startFill=0;endSize=8;html=1;verticalAlign=bottom;labelBackgroundColor=none;strokeWidth=3;rounded=0;exitX=0;exitY=0.3333333333333333;exitDx=0;exitDy=0;exitPerimeter=0;" edge="1" parent="1" source="jPH9L3uvW8ZsKooNiB7_-10" target="GkW7qO_hABvK1b0ZJFky-1">
          <mxGeometry width="160" relative="1" as="geometry">
            <mxPoint x="50" y="145" as="sourcePoint" />
            <mxPoint x="-50" y="57" as="targetPoint" />
          </mxGeometry>
        </mxCell>
        <mxCell id="ps6AS3u2AXBnxrDnGwN7-21" value="" style="endArrow=none;startArrow=none;endFill=0;startFill=0;endSize=8;html=1;verticalAlign=bottom;labelBackgroundColor=none;strokeWidth=3;rounded=0;exitX=0;exitY=0.3333333333333333;exitDx=0;exitDy=0;exitPerimeter=0;" edge="1" parent="1" source="jPH9L3uvW8ZsKooNiB7_-10" target="GkW7qO_hABvK1b0ZJFky-3">
          <mxGeometry width="160" relative="1" as="geometry">
            <mxPoint x="50" y="145" as="sourcePoint" />
            <mxPoint x="-200" y="145" as="targetPoint" />
          </mxGeometry>
        </mxCell>
        <mxCell id="ps6AS3u2AXBnxrDnGwN7-22" value="" style="endArrow=none;startArrow=none;endFill=0;startFill=0;endSize=8;html=1;verticalAlign=bottom;labelBackgroundColor=none;strokeWidth=3;rounded=0;exitX=0.5;exitY=0;exitDx=0;exitDy=0;exitPerimeter=0;" edge="1" parent="1" source="jPH9L3uvW8ZsKooNiB7_-10" target="ps6AS3u2AXBnxrDnGwN7-23">
          <mxGeometry width="160" relative="1" as="geometry">
            <mxPoint x="230" y="115" as="sourcePoint" />
            <mxPoint x="160" y="115" as="targetPoint" />
          </mxGeometry>
        </mxCell>
        <mxCell id="ps6AS3u2AXBnxrDnGwN7-23" value="Tạo thông báo" style="ellipse;whiteSpace=wrap;html=1;" vertex="1" parent="1">
          <mxGeometry x="-50" y="-120" width="110" height="50" as="geometry" />
        </mxCell>
        <mxCell id="ps6AS3u2AXBnxrDnGwN7-24" value="Quản lý thống kê" style="ellipse;whiteSpace=wrap;html=1;" vertex="1" parent="1">
          <mxGeometry y="315" width="110" height="50" as="geometry" />
        </mxCell>
        <mxCell id="ps6AS3u2AXBnxrDnGwN7-25" value="" style="endArrow=none;startArrow=none;endFill=0;startFill=0;endSize=8;html=1;verticalAlign=bottom;labelBackgroundColor=none;strokeWidth=3;rounded=0;exitX=0.533;exitY=0.65;exitDx=0;exitDy=0;exitPerimeter=0;" edge="1" parent="1" source="jPH9L3uvW8ZsKooNiB7_-10" target="ps6AS3u2AXBnxrDnGwN7-24">
          <mxGeometry width="160" relative="1" as="geometry">
            <mxPoint x="50" y="145" as="sourcePoint" />
            <mxPoint x="-190" y="155" as="targetPoint" />
          </mxGeometry>
        </mxCell>
        <mxCell id="ps6AS3u2AXBnxrDnGwN7-26" value="" style="endArrow=none;startArrow=none;endFill=0;startFill=0;endSize=8;html=1;verticalAlign=bottom;labelBackgroundColor=none;strokeWidth=3;rounded=0;exitX=0.5;exitY=0;exitDx=0;exitDy=0;exitPerimeter=0;" edge="1" parent="1" source="jPH9L3uvW8ZsKooNiB7_-10" target="ps6AS3u2AXBnxrDnGwN7-27">
          <mxGeometry width="160" relative="1" as="geometry">
            <mxPoint x="65" y="125" as="sourcePoint" />
            <mxPoint x="170" y="125" as="targetPoint" />
          </mxGeometry>
        </mxCell>
        <mxCell id="ps6AS3u2AXBnxrDnGwN7-27" value="Quản lý người tham gia" style="ellipse;whiteSpace=wrap;html=1;" vertex="1" parent="1">
          <mxGeometry x="110" y="-120" width="110" height="50" as="geometry" />
        </mxCell>
        <mxCell id="ps6AS3u2AXBnxrDnGwN7-28" value="" style="endArrow=none;startArrow=none;endFill=0;startFill=0;endSize=8;html=1;verticalAlign=bottom;labelBackgroundColor=none;strokeWidth=3;rounded=0;exitX=0.75;exitY=0.1;exitDx=0;exitDy=0;exitPerimeter=0;" edge="1" parent="1" source="jPH9L3uvW8ZsKooNiB7_-10" target="ps6AS3u2AXBnxrDnGwN7-29">
          <mxGeometry width="160" relative="1" as="geometry">
            <mxPoint x="245" y="125" as="sourcePoint" />
            <mxPoint x="350" y="125" as="targetPoint" />
          </mxGeometry>
        </mxCell>
        <mxCell id="ps6AS3u2AXBnxrDnGwN7-29" value="Quản lý người tạo công việc" style="ellipse;whiteSpace=wrap;html=1;" vertex="1" parent="1">
          <mxGeometry x="190" y="-40" width="110" height="50" as="geometry" />
        </mxCell>
      </root>
    </mxGraphModel>
  </diagram>
  <diagram id="Xeek3Q-XvLK2TY2kDkB3" name="Conceptual Model">
    <mxGraphModel grid="1" page="1" gridSize="10" guides="1" tooltips="1" connect="1" arrows="1" fold="1" pageScale="1" pageWidth="827" pageHeight="1169" math="0" shadow="0">
      <root>
        <mxCell id="0" />
        <mxCell id="1" parent="0" />
        <mxCell id="KexvF_wqJtUpdE_pBJXZ-1" value="&lt;b&gt;Khách hàng&lt;/b&gt;" style="swimlane;fontStyle=0;align=center;verticalAlign=top;childLayout=stackLayout;horizontal=1;startSize=30;horizontalStack=0;resizeParent=1;resizeParentMax=0;resizeLast=0;collapsible=0;marginBottom=0;html=1;" vertex="1" parent="1">
          <mxGeometry x="-70" y="-900" width="140" height="78" as="geometry" />
        </mxCell>
        <mxCell id="KexvF_wqJtUpdE_pBJXZ-3" value="Họ tên, số tài khoản" style="text;html=1;strokeColor=none;fillColor=none;align=left;verticalAlign=middle;spacingLeft=4;spacingRight=4;overflow=hidden;rotatable=0;points=[[0,0.5],[1,0.5]];portConstraint=eastwest;" vertex="1" parent="KexvF_wqJtUpdE_pBJXZ-1">
          <mxGeometry y="30" width="140" height="20" as="geometry" />
        </mxCell>
        <mxCell id="KexvF_wqJtUpdE_pBJXZ-6" value="" style="line;strokeWidth=1;fillColor=none;align=left;verticalAlign=middle;spacingTop=-1;spacingLeft=3;spacingRight=3;rotatable=0;labelPosition=right;points=[];portConstraint=eastwest;" vertex="1" parent="KexvF_wqJtUpdE_pBJXZ-1">
          <mxGeometry y="50" width="140" height="8" as="geometry" />
        </mxCell>
        <mxCell id="KexvF_wqJtUpdE_pBJXZ-8" value="&amp;nbsp; &amp;nbsp;&amp;nbsp;" style="text;html=1;strokeColor=none;fillColor=none;align=left;verticalAlign=middle;spacingLeft=4;spacingRight=4;overflow=hidden;rotatable=0;points=[[0,0.5],[1,0.5]];portConstraint=eastwest;" vertex="1" parent="KexvF_wqJtUpdE_pBJXZ-1">
          <mxGeometry y="58" width="140" height="20" as="geometry" />
        </mxCell>
        <mxCell id="pRnCxQCTN5d23mXLvag7-1" value="&lt;b&gt;Công việc&lt;/b&gt;" style="swimlane;fontStyle=0;align=center;verticalAlign=top;childLayout=stackLayout;horizontal=1;startSize=30;horizontalStack=0;resizeParent=1;resizeParentMax=0;resizeLast=0;collapsible=0;marginBottom=0;html=1;" vertex="1" parent="1">
          <mxGeometry x="-490" y="-900" width="140" height="78" as="geometry" />
        </mxCell>
        <mxCell id="pRnCxQCTN5d23mXLvag7-2" value="&amp;nbsp; &amp;nbsp;&amp;nbsp;" style="text;html=1;strokeColor=none;fillColor=none;align=left;verticalAlign=middle;spacingLeft=4;spacingRight=4;overflow=hidden;rotatable=0;points=[[0,0.5],[1,0.5]];portConstraint=eastwest;" vertex="1" parent="pRnCxQCTN5d23mXLvag7-1">
          <mxGeometry y="30" width="140" height="20" as="geometry" />
        </mxCell>
        <mxCell id="pRnCxQCTN5d23mXLvag7-3" value="" style="line;strokeWidth=1;fillColor=none;align=left;verticalAlign=middle;spacingTop=-1;spacingLeft=3;spacingRight=3;rotatable=0;labelPosition=right;points=[];portConstraint=eastwest;" vertex="1" parent="pRnCxQCTN5d23mXLvag7-1">
          <mxGeometry y="50" width="140" height="8" as="geometry" />
        </mxCell>
        <mxCell id="pRnCxQCTN5d23mXLvag7-4" value="&amp;nbsp; &amp;nbsp;&amp;nbsp;" style="text;html=1;strokeColor=none;fillColor=none;align=left;verticalAlign=middle;spacingLeft=4;spacingRight=4;overflow=hidden;rotatable=0;points=[[0,0.5],[1,0.5]];portConstraint=eastwest;" vertex="1" parent="pRnCxQCTN5d23mXLvag7-1">
          <mxGeometry y="58" width="140" height="20" as="geometry" />
        </mxCell>
        <mxCell id="FCVrJn7KLzjBRVukwYeF-1" value="&lt;b&gt;Quản trị&lt;/b&gt;" style="swimlane;fontStyle=0;align=center;verticalAlign=top;childLayout=stackLayout;horizontal=1;startSize=30;horizontalStack=0;resizeParent=1;resizeParentMax=0;resizeLast=0;collapsible=0;marginBottom=0;html=1;" vertex="1" parent="1">
          <mxGeometry x="-70" y="-1050" width="140" height="78" as="geometry" />
        </mxCell>
        <mxCell id="FCVrJn7KLzjBRVukwYeF-2" value="&amp;nbsp; &amp;nbsp;&amp;nbsp;" style="text;html=1;strokeColor=none;fillColor=none;align=left;verticalAlign=middle;spacingLeft=4;spacingRight=4;overflow=hidden;rotatable=0;points=[[0,0.5],[1,0.5]];portConstraint=eastwest;" vertex="1" parent="FCVrJn7KLzjBRVukwYeF-1">
          <mxGeometry y="30" width="140" height="20" as="geometry" />
        </mxCell>
        <mxCell id="FCVrJn7KLzjBRVukwYeF-3" value="" style="line;strokeWidth=1;fillColor=none;align=left;verticalAlign=middle;spacingTop=-1;spacingLeft=3;spacingRight=3;rotatable=0;labelPosition=right;points=[];portConstraint=eastwest;" vertex="1" parent="FCVrJn7KLzjBRVukwYeF-1">
          <mxGeometry y="50" width="140" height="8" as="geometry" />
        </mxCell>
        <mxCell id="FCVrJn7KLzjBRVukwYeF-4" value="&amp;nbsp; &amp;nbsp;&amp;nbsp;" style="text;html=1;strokeColor=none;fillColor=none;align=left;verticalAlign=middle;spacingLeft=4;spacingRight=4;overflow=hidden;rotatable=0;points=[[0,0.5],[1,0.5]];portConstraint=eastwest;" vertex="1" parent="FCVrJn7KLzjBRVukwYeF-1">
          <mxGeometry y="58" width="140" height="20" as="geometry" />
        </mxCell>
        <mxCell id="FCVrJn7KLzjBRVukwYeF-5" value="Có thể tạo, quản lý" style="endArrow=none;html=1;rounded=0;exitX=0;exitY=0.5;exitDx=0;exitDy=0;entryX=1;entryY=0.5;entryDx=0;entryDy=0;" edge="1" parent="1" source="KexvF_wqJtUpdE_pBJXZ-3" target="pRnCxQCTN5d23mXLvag7-2">
          <mxGeometry relative="1" as="geometry">
            <mxPoint x="70" y="-756" as="sourcePoint" />
            <mxPoint x="-310" y="-830" as="targetPoint" />
          </mxGeometry>
        </mxCell>
        <mxCell id="FCVrJn7KLzjBRVukwYeF-6" value="0..*" style="resizable=0;html=1;align=left;verticalAlign=bottom;" connectable="0" vertex="1" parent="FCVrJn7KLzjBRVukwYeF-5">
          <mxGeometry x="-1" relative="1" as="geometry">
            <mxPoint x="-276" as="offset" />
          </mxGeometry>
        </mxCell>
        <mxCell id="FCVrJn7KLzjBRVukwYeF-7" value="1" style="resizable=0;html=1;align=right;verticalAlign=bottom;" connectable="0" vertex="1" parent="FCVrJn7KLzjBRVukwYeF-5">
          <mxGeometry x="1" relative="1" as="geometry">
            <mxPoint x="270" as="offset" />
          </mxGeometry>
        </mxCell>
        <mxCell id="FCVrJn7KLzjBRVukwYeF-8" value="Có thể tham gia" style="endArrow=none;html=1;rounded=0;entryX=1;entryY=0.5;entryDx=0;entryDy=0;exitX=0;exitY=0.5;exitDx=0;exitDy=0;" edge="1" parent="1" source="KexvF_wqJtUpdE_pBJXZ-8" target="pRnCxQCTN5d23mXLvag7-4">
          <mxGeometry relative="1" as="geometry">
            <mxPoint x="-314.6250000000002" y="-580" as="sourcePoint" />
            <mxPoint x="-360" y="-790" as="targetPoint" />
          </mxGeometry>
        </mxCell>
        <mxCell id="FCVrJn7KLzjBRVukwYeF-9" value="1..*" style="resizable=0;html=1;align=left;verticalAlign=bottom;" connectable="0" vertex="1" parent="FCVrJn7KLzjBRVukwYeF-8">
          <mxGeometry x="-1" relative="1" as="geometry">
            <mxPoint x="-26" as="offset" />
          </mxGeometry>
        </mxCell>
        <mxCell id="FCVrJn7KLzjBRVukwYeF-10" value="0..*" style="resizable=0;html=1;align=right;verticalAlign=bottom;" connectable="0" vertex="1" parent="FCVrJn7KLzjBRVukwYeF-8">
          <mxGeometry x="1" relative="1" as="geometry">
            <mxPoint x="24" as="offset" />
          </mxGeometry>
        </mxCell>
        <mxCell id="FCVrJn7KLzjBRVukwYeF-11" value="Quản lý" style="endArrow=none;html=1;rounded=0;" edge="1" parent="1" source="pRnCxQCTN5d23mXLvag7-1" target="FCVrJn7KLzjBRVukwYeF-1">
          <mxGeometry relative="1" as="geometry">
            <mxPoint x="290" y="-545" as="sourcePoint" />
            <mxPoint x="450" y="-577" as="targetPoint" />
          </mxGeometry>
        </mxCell>
        <mxCell id="FCVrJn7KLzjBRVukwYeF-12" value="*" style="resizable=0;html=1;align=left;verticalAlign=bottom;" connectable="0" vertex="1" parent="FCVrJn7KLzjBRVukwYeF-11">
          <mxGeometry x="-1" relative="1" as="geometry">
            <mxPoint x="3" y="-2" as="offset" />
          </mxGeometry>
        </mxCell>
        <mxCell id="FCVrJn7KLzjBRVukwYeF-13" value="1..*" style="resizable=0;html=1;align=right;verticalAlign=bottom;" connectable="0" vertex="1" parent="FCVrJn7KLzjBRVukwYeF-11">
          <mxGeometry x="1" relative="1" as="geometry" />
        </mxCell>
        <mxCell id="FCVrJn7KLzjBRVukwYeF-14" value="&lt;b&gt;Bộ phận tài chính&lt;/b&gt;" style="swimlane;fontStyle=0;align=center;verticalAlign=top;childLayout=stackLayout;horizontal=1;startSize=30;horizontalStack=0;resizeParent=1;resizeParentMax=0;resizeLast=0;collapsible=0;marginBottom=0;html=1;" vertex="1" parent="1">
          <mxGeometry x="354" y="-900" width="140" height="78" as="geometry" />
        </mxCell>
        <mxCell id="FCVrJn7KLzjBRVukwYeF-15" value="&amp;nbsp; &amp;nbsp;&amp;nbsp;" style="text;html=1;strokeColor=none;fillColor=none;align=left;verticalAlign=middle;spacingLeft=4;spacingRight=4;overflow=hidden;rotatable=0;points=[[0,0.5],[1,0.5]];portConstraint=eastwest;" vertex="1" parent="FCVrJn7KLzjBRVukwYeF-14">
          <mxGeometry y="30" width="140" height="20" as="geometry" />
        </mxCell>
        <mxCell id="FCVrJn7KLzjBRVukwYeF-16" value="" style="line;strokeWidth=1;fillColor=none;align=left;verticalAlign=middle;spacingTop=-1;spacingLeft=3;spacingRight=3;rotatable=0;labelPosition=right;points=[];portConstraint=eastwest;" vertex="1" parent="FCVrJn7KLzjBRVukwYeF-14">
          <mxGeometry y="50" width="140" height="8" as="geometry" />
        </mxCell>
        <mxCell id="FCVrJn7KLzjBRVukwYeF-17" value="&amp;nbsp; &amp;nbsp;&amp;nbsp;" style="text;html=1;strokeColor=none;fillColor=none;align=left;verticalAlign=middle;spacingLeft=4;spacingRight=4;overflow=hidden;rotatable=0;points=[[0,0.5],[1,0.5]];portConstraint=eastwest;" vertex="1" parent="FCVrJn7KLzjBRVukwYeF-14">
          <mxGeometry y="58" width="140" height="20" as="geometry" />
        </mxCell>
        <mxCell id="FCVrJn7KLzjBRVukwYeF-18" value="Thanh toán" style="endArrow=none;html=1;rounded=0;exitX=1;exitY=0.5;exitDx=0;exitDy=0;" edge="1" parent="1" source="KexvF_wqJtUpdE_pBJXZ-3" target="FCVrJn7KLzjBRVukwYeF-14">
          <mxGeometry relative="1" as="geometry">
            <mxPoint x="130" y="-820" as="sourcePoint" />
            <mxPoint x="492" y="-170" as="targetPoint" />
          </mxGeometry>
        </mxCell>
        <mxCell id="FCVrJn7KLzjBRVukwYeF-19" value="1..*" style="resizable=0;html=1;align=left;verticalAlign=bottom;" connectable="0" vertex="1" parent="FCVrJn7KLzjBRVukwYeF-18">
          <mxGeometry x="-1" relative="1" as="geometry" />
        </mxCell>
        <mxCell id="FCVrJn7KLzjBRVukwYeF-21" value="Nhận tiền" style="endArrow=none;html=1;rounded=0;exitX=1;exitY=0.5;exitDx=0;exitDy=0;entryX=0;entryY=0.5;entryDx=0;entryDy=0;" edge="1" parent="1" source="KexvF_wqJtUpdE_pBJXZ-8" target="FCVrJn7KLzjBRVukwYeF-17">
          <mxGeometry relative="1" as="geometry">
            <mxPoint x="-230" y="-555.1772151898736" as="sourcePoint" />
            <mxPoint x="472" y="-227" as="targetPoint" />
          </mxGeometry>
        </mxCell>
        <mxCell id="FCVrJn7KLzjBRVukwYeF-22" value="1..*" style="resizable=0;html=1;align=left;verticalAlign=bottom;" connectable="0" vertex="1" parent="FCVrJn7KLzjBRVukwYeF-21">
          <mxGeometry x="-1" relative="1" as="geometry" />
        </mxCell>
        <mxCell id="FCVrJn7KLzjBRVukwYeF-23" value="0..*" style="resizable=0;html=1;align=right;verticalAlign=bottom;" connectable="0" vertex="1" parent="FCVrJn7KLzjBRVukwYeF-21">
          <mxGeometry x="1" relative="1" as="geometry" />
        </mxCell>
        <mxCell id="FCVrJn7KLzjBRVukwYeF-24" value="Quản lý" style="endArrow=none;html=1;rounded=0;" edge="1" parent="1" source="FCVrJn7KLzjBRVukwYeF-14" target="FCVrJn7KLzjBRVukwYeF-1">
          <mxGeometry relative="1" as="geometry">
            <mxPoint x="90" y="-751" as="sourcePoint" />
            <mxPoint x="550" y="-621" as="targetPoint" />
          </mxGeometry>
        </mxCell>
        <mxCell id="FCVrJn7KLzjBRVukwYeF-25" value="*" style="resizable=0;html=1;align=left;verticalAlign=bottom;" connectable="0" vertex="1" parent="FCVrJn7KLzjBRVukwYeF-24">
          <mxGeometry x="-1" relative="1" as="geometry">
            <mxPoint x="-15" y="-4" as="offset" />
          </mxGeometry>
        </mxCell>
        <mxCell id="FCVrJn7KLzjBRVukwYeF-26" value="1..*" style="resizable=0;html=1;align=right;verticalAlign=bottom;" connectable="0" vertex="1" parent="FCVrJn7KLzjBRVukwYeF-24">
          <mxGeometry x="1" relative="1" as="geometry">
            <mxPoint x="27" y="4" as="offset" />
          </mxGeometry>
        </mxCell>
        <mxCell id="FCVrJn7KLzjBRVukwYeF-27" value="Quản lý" style="endArrow=none;html=1;rounded=0;" edge="1" parent="1" source="KexvF_wqJtUpdE_pBJXZ-1" target="FCVrJn7KLzjBRVukwYeF-1">
          <mxGeometry relative="1" as="geometry">
            <mxPoint x="80" y="-532" as="sourcePoint" />
            <mxPoint x="550" y="-592" as="targetPoint" />
          </mxGeometry>
        </mxCell>
        <mxCell id="FCVrJn7KLzjBRVukwYeF-28" value="*" style="resizable=0;html=1;align=left;verticalAlign=bottom;" connectable="0" vertex="1" parent="FCVrJn7KLzjBRVukwYeF-27">
          <mxGeometry x="-1" relative="1" as="geometry">
            <mxPoint x="4" as="offset" />
          </mxGeometry>
        </mxCell>
        <mxCell id="FCVrJn7KLzjBRVukwYeF-29" value="1..*" style="resizable=0;html=1;align=right;verticalAlign=bottom;" connectable="0" vertex="1" parent="FCVrJn7KLzjBRVukwYeF-27">
          <mxGeometry x="1" relative="1" as="geometry">
            <mxPoint y="19" as="offset" />
          </mxGeometry>
        </mxCell>
        <mxCell id="FCVrJn7KLzjBRVukwYeF-30" value="0..*" style="resizable=0;html=1;align=right;verticalAlign=bottom;" connectable="0" vertex="1" parent="1">
          <mxGeometry x="360" y="-830" as="geometry">
            <mxPoint x="-7" y="-29" as="offset" />
          </mxGeometry>
        </mxCell>
      </root>
    </mxGraphModel>
  </diagram>
  <diagram id="D7ySlPQ-7VbvyRqQpkxI" name="Class">
    <mxGraphModel grid="1" page="1" gridSize="10" guides="1" tooltips="1" connect="1" arrows="1" fold="1" pageScale="1" pageWidth="827" pageHeight="1169" math="0" shadow="0">
      <root>
        <mxCell id="0" />
        <mxCell id="1" parent="0" />
        <mxCell id="S9iGeUeGR2hdq3TzK3gb-25" value="&lt;b&gt;Khách hàng&lt;/b&gt;" style="swimlane;fontStyle=0;align=center;verticalAlign=top;childLayout=stackLayout;horizontal=1;startSize=30;horizontalStack=0;resizeParent=1;resizeParentMax=0;resizeLast=0;collapsible=0;marginBottom=0;html=1;whiteSpace=wrap;" vertex="1" parent="1">
          <mxGeometry x="-390" y="-80" width="140" height="170" as="geometry" />
        </mxCell>
        <mxCell id="S9iGeUeGR2hdq3TzK3gb-26" value="attributes" style="text;html=1;strokeColor=none;fillColor=none;align=center;verticalAlign=middle;spacingLeft=4;spacingRight=4;overflow=hidden;rotatable=0;points=[[0,0.5],[1,0.5]];portConstraint=eastwest;whiteSpace=wrap;" vertex="1" parent="S9iGeUeGR2hdq3TzK3gb-25">
          <mxGeometry y="30" width="140" height="20" as="geometry" />
        </mxCell>
        <mxCell id="S9iGeUeGR2hdq3TzK3gb-27" value="- ID khách hàng: int&lt;br&gt;- Stk: string&lt;br&gt;- Gmail: string" style="text;html=1;strokeColor=none;fillColor=none;align=left;verticalAlign=middle;spacingLeft=4;spacingRight=4;overflow=hidden;rotatable=0;points=[[0,0.5],[1,0.5]];portConstraint=eastwest;whiteSpace=wrap;" vertex="1" parent="S9iGeUeGR2hdq3TzK3gb-25">
          <mxGeometry y="50" width="140" height="70" as="geometry" />
        </mxCell>
        <mxCell id="S9iGeUeGR2hdq3TzK3gb-30" value="" style="line;strokeWidth=1;fillColor=none;align=left;verticalAlign=middle;spacingTop=-1;spacingLeft=3;spacingRight=3;rotatable=0;labelPosition=right;points=[];portConstraint=eastwest;" vertex="1" parent="S9iGeUeGR2hdq3TzK3gb-25">
          <mxGeometry y="120" width="140" height="10" as="geometry" />
        </mxCell>
        <mxCell id="S9iGeUeGR2hdq3TzK3gb-31" value="operations" style="text;html=1;strokeColor=none;fillColor=none;align=center;verticalAlign=middle;spacingLeft=4;spacingRight=4;overflow=hidden;rotatable=0;points=[[0,0.5],[1,0.5]];portConstraint=eastwest;whiteSpace=wrap;" vertex="1" parent="S9iGeUeGR2hdq3TzK3gb-25">
          <mxGeometry y="130" width="140" height="20" as="geometry" />
        </mxCell>
        <mxCell id="S9iGeUeGR2hdq3TzK3gb-32" value="&amp;nbsp;" style="text;html=1;strokeColor=none;fillColor=none;align=left;verticalAlign=middle;spacingLeft=4;spacingRight=4;overflow=hidden;rotatable=0;points=[[0,0.5],[1,0.5]];portConstraint=eastwest;whiteSpace=wrap;" vertex="1" parent="S9iGeUeGR2hdq3TzK3gb-25">
          <mxGeometry y="150" width="140" height="20" as="geometry" />
        </mxCell>
        <mxCell id="-BAK4BhTOTwu0O0_LGQR-2" value="&lt;b&gt;Công việc&lt;/b&gt;" style="swimlane;fontStyle=0;align=center;verticalAlign=top;childLayout=stackLayout;horizontal=1;startSize=30;horizontalStack=0;resizeParent=1;resizeParentMax=0;resizeLast=0;collapsible=0;marginBottom=0;html=1;whiteSpace=wrap;" vertex="1" parent="1">
          <mxGeometry x="160" y="-160" width="180" height="280" as="geometry" />
        </mxCell>
        <mxCell id="-BAK4BhTOTwu0O0_LGQR-3" value="attributes" style="text;html=1;strokeColor=none;fillColor=none;align=center;verticalAlign=middle;spacingLeft=4;spacingRight=4;overflow=hidden;rotatable=0;points=[[0,0.5],[1,0.5]];portConstraint=eastwest;whiteSpace=wrap;" vertex="1" parent="-BAK4BhTOTwu0O0_LGQR-2">
          <mxGeometry y="30" width="180" height="20" as="geometry" />
        </mxCell>
        <mxCell id="-BAK4BhTOTwu0O0_LGQR-4" value="- ID cv: int&lt;br&gt;- Tên cv: string&lt;br&gt;- Loại công việc: loaicongviec()&lt;br&gt;- Địa chỉ chi tiết cv: string&lt;br&gt;- Ảnh: string&lt;br&gt;- Thành phố: string&lt;br&gt;- Quận/ huyện: string&lt;br&gt;- Số lượng người cần: int&lt;br&gt;- Số tiền phải trả: int&lt;br&gt;- Ngày giờ làm việc: date" style="text;html=1;strokeColor=none;fillColor=none;align=left;verticalAlign=middle;spacingLeft=4;spacingRight=4;overflow=hidden;rotatable=0;points=[[0,0.5],[1,0.5]];portConstraint=eastwest;whiteSpace=wrap;" vertex="1" parent="-BAK4BhTOTwu0O0_LGQR-2">
          <mxGeometry y="50" width="180" height="150" as="geometry" />
        </mxCell>
        <mxCell id="-BAK4BhTOTwu0O0_LGQR-5" value="" style="line;strokeWidth=1;fillColor=none;align=left;verticalAlign=middle;spacingTop=-1;spacingLeft=3;spacingRight=3;rotatable=0;labelPosition=right;points=[];portConstraint=eastwest;" vertex="1" parent="-BAK4BhTOTwu0O0_LGQR-2">
          <mxGeometry y="200" width="180" height="10" as="geometry" />
        </mxCell>
        <mxCell id="-BAK4BhTOTwu0O0_LGQR-6" value="operations" style="text;html=1;strokeColor=none;fillColor=none;align=center;verticalAlign=middle;spacingLeft=4;spacingRight=4;overflow=hidden;rotatable=0;points=[[0,0.5],[1,0.5]];portConstraint=eastwest;whiteSpace=wrap;" vertex="1" parent="-BAK4BhTOTwu0O0_LGQR-2">
          <mxGeometry y="210" width="180" height="20" as="geometry" />
        </mxCell>
        <mxCell id="-BAK4BhTOTwu0O0_LGQR-7" value="+ Lưu trữ thông tin&lt;br&gt;+ Tính số tiền người tham gia nhận được" style="text;html=1;strokeColor=none;fillColor=none;align=left;verticalAlign=middle;spacingLeft=4;spacingRight=4;overflow=hidden;rotatable=0;points=[[0,0.5],[1,0.5]];portConstraint=eastwest;whiteSpace=wrap;" vertex="1" parent="-BAK4BhTOTwu0O0_LGQR-2">
          <mxGeometry y="230" width="180" height="50" as="geometry" />
        </mxCell>
        <mxCell id="-BAK4BhTOTwu0O0_LGQR-8" value="&lt;b&gt;Admin&lt;/b&gt;" style="swimlane;fontStyle=0;align=center;verticalAlign=top;childLayout=stackLayout;horizontal=1;startSize=30;horizontalStack=0;resizeParent=1;resizeParentMax=0;resizeLast=0;collapsible=0;marginBottom=0;html=1;whiteSpace=wrap;" vertex="1" parent="1">
          <mxGeometry x="-660" y="-80" width="140" height="190" as="geometry" />
        </mxCell>
        <mxCell id="-BAK4BhTOTwu0O0_LGQR-9" value="attributes" style="text;html=1;strokeColor=none;fillColor=none;align=center;verticalAlign=middle;spacingLeft=4;spacingRight=4;overflow=hidden;rotatable=0;points=[[0,0.5],[1,0.5]];portConstraint=eastwest;whiteSpace=wrap;" vertex="1" parent="-BAK4BhTOTwu0O0_LGQR-8">
          <mxGeometry y="30" width="140" height="20" as="geometry" />
        </mxCell>
        <mxCell id="-BAK4BhTOTwu0O0_LGQR-10" value="- ID admin: int" style="text;html=1;strokeColor=none;fillColor=none;align=left;verticalAlign=middle;spacingLeft=4;spacingRight=4;overflow=hidden;rotatable=0;points=[[0,0.5],[1,0.5]];portConstraint=eastwest;whiteSpace=wrap;" vertex="1" parent="-BAK4BhTOTwu0O0_LGQR-8">
          <mxGeometry y="50" width="140" height="40" as="geometry" />
        </mxCell>
        <mxCell id="-BAK4BhTOTwu0O0_LGQR-11" value="" style="line;strokeWidth=1;fillColor=none;align=left;verticalAlign=middle;spacingTop=-1;spacingLeft=3;spacingRight=3;rotatable=0;labelPosition=right;points=[];portConstraint=eastwest;" vertex="1" parent="-BAK4BhTOTwu0O0_LGQR-8">
          <mxGeometry y="90" width="140" height="10" as="geometry" />
        </mxCell>
        <mxCell id="-BAK4BhTOTwu0O0_LGQR-12" value="operations" style="text;html=1;strokeColor=none;fillColor=none;align=center;verticalAlign=middle;spacingLeft=4;spacingRight=4;overflow=hidden;rotatable=0;points=[[0,0.5],[1,0.5]];portConstraint=eastwest;whiteSpace=wrap;" vertex="1" parent="-BAK4BhTOTwu0O0_LGQR-8">
          <mxGeometry y="100" width="140" height="20" as="geometry" />
        </mxCell>
        <mxCell id="-BAK4BhTOTwu0O0_LGQR-13" value="- Quản lý thông tin khách hàng&lt;br&gt;- Quản lý công việc&lt;br&gt;- Quản lý thu chi" style="text;html=1;strokeColor=none;fillColor=none;align=left;verticalAlign=middle;spacingLeft=4;spacingRight=4;overflow=hidden;rotatable=0;points=[[0,0.5],[1,0.5]];portConstraint=eastwest;whiteSpace=wrap;" vertex="1" parent="-BAK4BhTOTwu0O0_LGQR-8">
          <mxGeometry y="120" width="140" height="70" as="geometry" />
        </mxCell>
        <mxCell id="-BAK4BhTOTwu0O0_LGQR-15" value="&lt;b&gt;Phương thức thanh toán&lt;/b&gt;" style="swimlane;fontStyle=0;align=center;verticalAlign=top;childLayout=stackLayout;horizontal=1;startSize=40;horizontalStack=0;resizeParent=1;resizeParentMax=0;resizeLast=0;collapsible=0;marginBottom=0;html=1;whiteSpace=wrap;" vertex="1" parent="1">
          <mxGeometry x="740" y="-10" width="150" height="250" as="geometry" />
        </mxCell>
        <mxCell id="-BAK4BhTOTwu0O0_LGQR-16" value="attributes" style="text;html=1;strokeColor=none;fillColor=none;align=center;verticalAlign=middle;spacingLeft=4;spacingRight=4;overflow=hidden;rotatable=0;points=[[0,0.5],[1,0.5]];portConstraint=eastwest;whiteSpace=wrap;" vertex="1" parent="-BAK4BhTOTwu0O0_LGQR-15">
          <mxGeometry y="40" width="150" height="20" as="geometry" />
        </mxCell>
        <mxCell id="-BAK4BhTOTwu0O0_LGQR-17" value="- ID phương thức: int&lt;br&gt;- Tên phương thức: string" style="text;html=1;strokeColor=none;fillColor=none;align=left;verticalAlign=middle;spacingLeft=4;spacingRight=4;overflow=hidden;rotatable=0;points=[[0,0.5],[1,0.5]];portConstraint=eastwest;whiteSpace=wrap;" vertex="1" parent="-BAK4BhTOTwu0O0_LGQR-15">
          <mxGeometry y="60" width="150" height="50" as="geometry" />
        </mxCell>
        <mxCell id="-BAK4BhTOTwu0O0_LGQR-18" value="" style="line;strokeWidth=1;fillColor=none;align=left;verticalAlign=middle;spacingTop=-1;spacingLeft=3;spacingRight=3;rotatable=0;labelPosition=right;points=[];portConstraint=eastwest;" vertex="1" parent="-BAK4BhTOTwu0O0_LGQR-15">
          <mxGeometry y="110" width="150" height="10" as="geometry" />
        </mxCell>
        <mxCell id="-BAK4BhTOTwu0O0_LGQR-19" value="operations" style="text;html=1;strokeColor=none;fillColor=none;align=center;verticalAlign=middle;spacingLeft=4;spacingRight=4;overflow=hidden;rotatable=0;points=[[0,0.5],[1,0.5]];portConstraint=eastwest;whiteSpace=wrap;" vertex="1" parent="-BAK4BhTOTwu0O0_LGQR-15">
          <mxGeometry y="120" width="150" height="20" as="geometry" />
        </mxCell>
        <mxCell id="-BAK4BhTOTwu0O0_LGQR-20" value="- Lưu thông tin của phương thức thanh toán&lt;br&gt;- Thêm phương thức thanh toán&lt;br&gt;- Xóa phương thức thanh toán" style="text;html=1;strokeColor=none;fillColor=none;align=left;verticalAlign=middle;spacingLeft=4;spacingRight=4;overflow=hidden;rotatable=0;points=[[0,0.5],[1,0.5]];portConstraint=eastwest;whiteSpace=wrap;" vertex="1" parent="-BAK4BhTOTwu0O0_LGQR-15">
          <mxGeometry y="140" width="150" height="110" as="geometry" />
        </mxCell>
        <mxCell id="-BAK4BhTOTwu0O0_LGQR-21" value="&lt;b&gt;Chi tiết công việc&lt;/b&gt;" style="swimlane;fontStyle=0;align=center;verticalAlign=top;childLayout=stackLayout;horizontal=1;startSize=30;horizontalStack=0;resizeParent=1;resizeParentMax=0;resizeLast=0;collapsible=0;marginBottom=0;html=1;whiteSpace=wrap;" vertex="1" parent="1">
          <mxGeometry x="490" y="-290" width="160" height="250" as="geometry" />
        </mxCell>
        <mxCell id="-BAK4BhTOTwu0O0_LGQR-22" value="attributes" style="text;html=1;strokeColor=none;fillColor=none;align=center;verticalAlign=middle;spacingLeft=4;spacingRight=4;overflow=hidden;rotatable=0;points=[[0,0.5],[1,0.5]];portConstraint=eastwest;whiteSpace=wrap;" vertex="1" parent="-BAK4BhTOTwu0O0_LGQR-21">
          <mxGeometry y="30" width="160" height="20" as="geometry" />
        </mxCell>
        <mxCell id="-BAK4BhTOTwu0O0_LGQR-23" value="- Mô tả cv: string&lt;br&gt;- Số giờ cần thực hiện: int&lt;br&gt;- Số tiền phải trả: int&lt;br&gt;- Thông tin người tham gia&lt;br&gt;- Số tiền thanh toán: int" style="text;html=1;strokeColor=none;fillColor=none;align=left;verticalAlign=middle;spacingLeft=4;spacingRight=4;overflow=hidden;rotatable=0;points=[[0,0.5],[1,0.5]];portConstraint=eastwest;whiteSpace=wrap;" vertex="1" parent="-BAK4BhTOTwu0O0_LGQR-21">
          <mxGeometry y="50" width="160" height="100" as="geometry" />
        </mxCell>
        <mxCell id="-BAK4BhTOTwu0O0_LGQR-24" value="" style="line;strokeWidth=1;fillColor=none;align=left;verticalAlign=middle;spacingTop=-1;spacingLeft=3;spacingRight=3;rotatable=0;labelPosition=right;points=[];portConstraint=eastwest;" vertex="1" parent="-BAK4BhTOTwu0O0_LGQR-21">
          <mxGeometry y="150" width="160" height="10" as="geometry" />
        </mxCell>
        <mxCell id="-BAK4BhTOTwu0O0_LGQR-25" value="operations" style="text;html=1;strokeColor=none;fillColor=none;align=center;verticalAlign=middle;spacingLeft=4;spacingRight=4;overflow=hidden;rotatable=0;points=[[0,0.5],[1,0.5]];portConstraint=eastwest;whiteSpace=wrap;" vertex="1" parent="-BAK4BhTOTwu0O0_LGQR-21">
          <mxGeometry y="160" width="160" height="20" as="geometry" />
        </mxCell>
        <mxCell id="-BAK4BhTOTwu0O0_LGQR-26" value="- Lưu trữ thông tin người tham gia công việc&lt;br&gt;- Tính toán số lượng" style="text;html=1;strokeColor=none;fillColor=none;align=left;verticalAlign=middle;spacingLeft=4;spacingRight=4;overflow=hidden;rotatable=0;points=[[0,0.5],[1,0.5]];portConstraint=eastwest;whiteSpace=wrap;" vertex="1" parent="-BAK4BhTOTwu0O0_LGQR-21">
          <mxGeometry y="180" width="160" height="70" as="geometry" />
        </mxCell>
        <mxCell id="FFGAAxLa8YR3cacNtyh_-1" value="&lt;b&gt;Thanh toán&lt;/b&gt;" style="swimlane;fontStyle=0;align=center;verticalAlign=top;childLayout=stackLayout;horizontal=1;startSize=30;horizontalStack=0;resizeParent=1;resizeParentMax=0;resizeLast=0;collapsible=0;marginBottom=0;html=1;whiteSpace=wrap;" vertex="1" parent="1">
          <mxGeometry x="500" y="70" width="140" height="170" as="geometry" />
        </mxCell>
        <mxCell id="FFGAAxLa8YR3cacNtyh_-2" value="attributes" style="text;html=1;strokeColor=none;fillColor=none;align=center;verticalAlign=middle;spacingLeft=4;spacingRight=4;overflow=hidden;rotatable=0;points=[[0,0.5],[1,0.5]];portConstraint=eastwest;whiteSpace=wrap;" vertex="1" parent="FFGAAxLa8YR3cacNtyh_-1">
          <mxGeometry y="30" width="140" height="20" as="geometry" />
        </mxCell>
        <mxCell id="FFGAAxLa8YR3cacNtyh_-3" value="- Thời gian thanh toán: Date&lt;br&gt;- Số tiền: int" style="text;html=1;strokeColor=none;fillColor=none;align=left;verticalAlign=middle;spacingLeft=4;spacingRight=4;overflow=hidden;rotatable=0;points=[[0,0.5],[1,0.5]];portConstraint=eastwest;whiteSpace=wrap;" vertex="1" parent="FFGAAxLa8YR3cacNtyh_-1">
          <mxGeometry y="50" width="140" height="60" as="geometry" />
        </mxCell>
        <mxCell id="FFGAAxLa8YR3cacNtyh_-4" value="" style="line;strokeWidth=1;fillColor=none;align=left;verticalAlign=middle;spacingTop=-1;spacingLeft=3;spacingRight=3;rotatable=0;labelPosition=right;points=[];portConstraint=eastwest;" vertex="1" parent="FFGAAxLa8YR3cacNtyh_-1">
          <mxGeometry y="110" width="140" height="10" as="geometry" />
        </mxCell>
        <mxCell id="FFGAAxLa8YR3cacNtyh_-5" value="operations" style="text;html=1;strokeColor=none;fillColor=none;align=center;verticalAlign=middle;spacingLeft=4;spacingRight=4;overflow=hidden;rotatable=0;points=[[0,0.5],[1,0.5]];portConstraint=eastwest;whiteSpace=wrap;" vertex="1" parent="FFGAAxLa8YR3cacNtyh_-1">
          <mxGeometry y="120" width="140" height="20" as="geometry" />
        </mxCell>
        <mxCell id="FFGAAxLa8YR3cacNtyh_-6" value="&amp;nbsp; &amp;nbsp;" style="text;html=1;strokeColor=none;fillColor=none;align=left;verticalAlign=middle;spacingLeft=4;spacingRight=4;overflow=hidden;rotatable=0;points=[[0,0.5],[1,0.5]];portConstraint=eastwest;whiteSpace=wrap;" vertex="1" parent="FFGAAxLa8YR3cacNtyh_-1">
          <mxGeometry y="140" width="140" height="30" as="geometry" />
        </mxCell>
        <mxCell id="RrQ9C4Th32k1tk6mzIA7-2" value="" style="endArrow=none;startArrow=diamondThin;endFill=0;startFill=0;html=1;verticalAlign=bottom;labelBackgroundColor=none;strokeWidth=1;startSize=8;endSize=8;rounded=0;" edge="1" parent="1" source="-BAK4BhTOTwu0O0_LGQR-2" target="-BAK4BhTOTwu0O0_LGQR-21">
          <mxGeometry width="160" relative="1" as="geometry">
            <mxPoint x="-610" y="865" as="sourcePoint" />
            <mxPoint x="-450" y="865" as="targetPoint" />
          </mxGeometry>
        </mxCell>
        <mxCell id="RrQ9C4Th32k1tk6mzIA7-3" value="&lt;b&gt;Tài khoản&lt;/b&gt;" style="swimlane;fontStyle=0;align=center;verticalAlign=top;childLayout=stackLayout;horizontal=1;startSize=30;horizontalStack=0;resizeParent=1;resizeParentMax=0;resizeLast=0;collapsible=0;marginBottom=0;html=1;whiteSpace=wrap;" vertex="1" parent="1">
          <mxGeometry x="-530" y="-360" width="140" height="210" as="geometry" />
        </mxCell>
        <mxCell id="RrQ9C4Th32k1tk6mzIA7-4" value="attributes" style="text;html=1;strokeColor=none;fillColor=none;align=center;verticalAlign=middle;spacingLeft=4;spacingRight=4;overflow=hidden;rotatable=0;points=[[0,0.5],[1,0.5]];portConstraint=eastwest;whiteSpace=wrap;" vertex="1" parent="RrQ9C4Th32k1tk6mzIA7-3">
          <mxGeometry y="30" width="140" height="20" as="geometry" />
        </mxCell>
        <mxCell id="RrQ9C4Th32k1tk6mzIA7-5" value="- Username: string&lt;br style=&quot;border-color: var(--border-color);&quot;&gt;- Password: string&lt;br&gt;- Họ và tên: string&lt;br style=&quot;border-color: var(--border-color);&quot;&gt;- Địa chỉ: string&lt;br style=&quot;border-color: var(--border-color);&quot;&gt;- Sđt: string&lt;br&gt;- Phân quyền: int&lt;br&gt;- Ảnh: string" style="text;html=1;strokeColor=none;fillColor=none;align=left;verticalAlign=middle;spacingLeft=4;spacingRight=4;overflow=hidden;rotatable=0;points=[[0,0.5],[1,0.5]];portConstraint=eastwest;whiteSpace=wrap;" vertex="1" parent="RrQ9C4Th32k1tk6mzIA7-3">
          <mxGeometry y="50" width="140" height="110" as="geometry" />
        </mxCell>
        <mxCell id="RrQ9C4Th32k1tk6mzIA7-6" value="" style="line;strokeWidth=1;fillColor=none;align=left;verticalAlign=middle;spacingTop=-1;spacingLeft=3;spacingRight=3;rotatable=0;labelPosition=right;points=[];portConstraint=eastwest;" vertex="1" parent="RrQ9C4Th32k1tk6mzIA7-3">
          <mxGeometry y="160" width="140" height="10" as="geometry" />
        </mxCell>
        <mxCell id="RrQ9C4Th32k1tk6mzIA7-7" value="operations" style="text;html=1;strokeColor=none;fillColor=none;align=center;verticalAlign=middle;spacingLeft=4;spacingRight=4;overflow=hidden;rotatable=0;points=[[0,0.5],[1,0.5]];portConstraint=eastwest;whiteSpace=wrap;" vertex="1" parent="RrQ9C4Th32k1tk6mzIA7-3">
          <mxGeometry y="170" width="140" height="20" as="geometry" />
        </mxCell>
        <mxCell id="RrQ9C4Th32k1tk6mzIA7-8" value="&amp;nbsp;" style="text;html=1;strokeColor=none;fillColor=none;align=left;verticalAlign=middle;spacingLeft=4;spacingRight=4;overflow=hidden;rotatable=0;points=[[0,0.5],[1,0.5]];portConstraint=eastwest;whiteSpace=wrap;" vertex="1" parent="RrQ9C4Th32k1tk6mzIA7-3">
          <mxGeometry y="190" width="140" height="20" as="geometry" />
        </mxCell>
        <mxCell id="RrQ9C4Th32k1tk6mzIA7-9" value="" style="endArrow=block;html=1;rounded=0;align=center;verticalAlign=bottom;endFill=0;labelBackgroundColor=none;endSize=8;" edge="1" parent="1" source="-BAK4BhTOTwu0O0_LGQR-8" target="RrQ9C4Th32k1tk6mzIA7-3">
          <mxGeometry relative="1" as="geometry">
            <mxPoint x="-370" y="-210" as="sourcePoint" />
            <mxPoint x="-210" y="-210" as="targetPoint" />
          </mxGeometry>
        </mxCell>
        <mxCell id="RrQ9C4Th32k1tk6mzIA7-10" value="" style="resizable=0;html=1;align=center;verticalAlign=top;labelBackgroundColor=none;" connectable="0" vertex="1" parent="RrQ9C4Th32k1tk6mzIA7-9">
          <mxGeometry relative="1" as="geometry" />
        </mxCell>
        <mxCell id="RrQ9C4Th32k1tk6mzIA7-11" value="" style="endArrow=block;html=1;rounded=0;align=center;verticalAlign=bottom;endFill=0;labelBackgroundColor=none;endSize=8;" edge="1" parent="1" source="S9iGeUeGR2hdq3TzK3gb-25" target="RrQ9C4Th32k1tk6mzIA7-3">
          <mxGeometry relative="1" as="geometry">
            <mxPoint x="-562" y="-120" as="sourcePoint" />
            <mxPoint x="-522" y="-190" as="targetPoint" />
          </mxGeometry>
        </mxCell>
        <mxCell id="RrQ9C4Th32k1tk6mzIA7-12" value="" style="resizable=0;html=1;align=center;verticalAlign=top;labelBackgroundColor=none;" connectable="0" vertex="1" parent="RrQ9C4Th32k1tk6mzIA7-11">
          <mxGeometry relative="1" as="geometry" />
        </mxCell>
        <mxCell id="RrQ9C4Th32k1tk6mzIA7-13" value="&lt;b&gt;Loại công việc&lt;/b&gt;" style="swimlane;fontStyle=0;align=center;verticalAlign=top;childLayout=stackLayout;horizontal=1;startSize=30;horizontalStack=0;resizeParent=1;resizeParentMax=0;resizeLast=0;collapsible=0;marginBottom=0;html=1;whiteSpace=wrap;" vertex="1" parent="1">
          <mxGeometry x="175" y="180" width="150" height="170" as="geometry" />
        </mxCell>
        <mxCell id="RrQ9C4Th32k1tk6mzIA7-14" value="attributes" style="text;html=1;strokeColor=none;fillColor=none;align=center;verticalAlign=middle;spacingLeft=4;spacingRight=4;overflow=hidden;rotatable=0;points=[[0,0.5],[1,0.5]];portConstraint=eastwest;whiteSpace=wrap;" vertex="1" parent="RrQ9C4Th32k1tk6mzIA7-13">
          <mxGeometry y="30" width="150" height="20" as="geometry" />
        </mxCell>
        <mxCell id="RrQ9C4Th32k1tk6mzIA7-15" value="- ID Loại cv: int&lt;br&gt;- Tên Loại cv: string&lt;br&gt;- Giá tiền: int" style="text;html=1;strokeColor=none;fillColor=none;align=left;verticalAlign=middle;spacingLeft=4;spacingRight=4;overflow=hidden;rotatable=0;points=[[0,0.5],[1,0.5]];portConstraint=eastwest;whiteSpace=wrap;" vertex="1" parent="RrQ9C4Th32k1tk6mzIA7-13">
          <mxGeometry y="50" width="150" height="60" as="geometry" />
        </mxCell>
        <mxCell id="RrQ9C4Th32k1tk6mzIA7-16" value="" style="line;strokeWidth=1;fillColor=none;align=left;verticalAlign=middle;spacingTop=-1;spacingLeft=3;spacingRight=3;rotatable=0;labelPosition=right;points=[];portConstraint=eastwest;" vertex="1" parent="RrQ9C4Th32k1tk6mzIA7-13">
          <mxGeometry y="110" width="150" height="10" as="geometry" />
        </mxCell>
        <mxCell id="RrQ9C4Th32k1tk6mzIA7-17" value="operations" style="text;html=1;strokeColor=none;fillColor=none;align=center;verticalAlign=middle;spacingLeft=4;spacingRight=4;overflow=hidden;rotatable=0;points=[[0,0.5],[1,0.5]];portConstraint=eastwest;whiteSpace=wrap;" vertex="1" parent="RrQ9C4Th32k1tk6mzIA7-13">
          <mxGeometry y="120" width="150" height="20" as="geometry" />
        </mxCell>
        <mxCell id="RrQ9C4Th32k1tk6mzIA7-18" value="- Lưu trữ thông tin loại cv" style="text;html=1;strokeColor=none;fillColor=none;align=left;verticalAlign=middle;spacingLeft=4;spacingRight=4;overflow=hidden;rotatable=0;points=[[0,0.5],[1,0.5]];portConstraint=eastwest;whiteSpace=wrap;" vertex="1" parent="RrQ9C4Th32k1tk6mzIA7-13">
          <mxGeometry y="140" width="150" height="30" as="geometry" />
        </mxCell>
        <mxCell id="RrQ9C4Th32k1tk6mzIA7-19" value="" style="endArrow=none;html=1;rounded=0;" edge="1" parent="1" source="RrQ9C4Th32k1tk6mzIA7-13" target="-BAK4BhTOTwu0O0_LGQR-2">
          <mxGeometry width="50" height="50" relative="1" as="geometry">
            <mxPoint x="-590" y="695" as="sourcePoint" />
            <mxPoint x="-420" y="695" as="targetPoint" />
          </mxGeometry>
        </mxCell>
        <mxCell id="RrQ9C4Th32k1tk6mzIA7-20" value="" style="endArrow=none;html=1;rounded=0;" edge="1" parent="1" source="-BAK4BhTOTwu0O0_LGQR-21" target="FFGAAxLa8YR3cacNtyh_-1">
          <mxGeometry width="50" height="50" relative="1" as="geometry">
            <mxPoint x="110" y="5" as="sourcePoint" />
            <mxPoint x="280" y="5" as="targetPoint" />
          </mxGeometry>
        </mxCell>
        <mxCell id="RrQ9C4Th32k1tk6mzIA7-21" value="" style="endArrow=none;startArrow=diamondThin;endFill=0;startFill=0;html=1;verticalAlign=bottom;labelBackgroundColor=none;strokeWidth=1;startSize=8;endSize=8;rounded=0;" edge="1" parent="1" source="FFGAAxLa8YR3cacNtyh_-1" target="-BAK4BhTOTwu0O0_LGQR-15">
          <mxGeometry width="160" relative="1" as="geometry">
            <mxPoint x="730" y="45" as="sourcePoint" />
            <mxPoint x="730" y="110" as="targetPoint" />
          </mxGeometry>
        </mxCell>
        <mxCell id="_BaMicFhqZS_WZ05KJrz-1" value="&lt;b&gt;Người tạo việc&lt;/b&gt;" style="swimlane;fontStyle=0;align=center;verticalAlign=top;childLayout=stackLayout;horizontal=1;startSize=30;horizontalStack=0;resizeParent=1;resizeParentMax=0;resizeLast=0;collapsible=0;marginBottom=0;html=1;whiteSpace=wrap;" vertex="1" parent="1">
          <mxGeometry x="-150" y="50" width="140" height="170" as="geometry" />
        </mxCell>
        <mxCell id="_BaMicFhqZS_WZ05KJrz-2" value="attributes" style="text;html=1;strokeColor=none;fillColor=none;align=center;verticalAlign=middle;spacingLeft=4;spacingRight=4;overflow=hidden;rotatable=0;points=[[0,0.5],[1,0.5]];portConstraint=eastwest;whiteSpace=wrap;" vertex="1" parent="_BaMicFhqZS_WZ05KJrz-1">
          <mxGeometry y="30" width="140" height="20" as="geometry" />
        </mxCell>
        <mxCell id="_BaMicFhqZS_WZ05KJrz-3" value="&amp;nbsp;" style="text;html=1;strokeColor=none;fillColor=none;align=left;verticalAlign=middle;spacingLeft=4;spacingRight=4;overflow=hidden;rotatable=0;points=[[0,0.5],[1,0.5]];portConstraint=eastwest;whiteSpace=wrap;" vertex="1" parent="_BaMicFhqZS_WZ05KJrz-1">
          <mxGeometry y="50" width="140" height="20" as="geometry" />
        </mxCell>
        <mxCell id="_BaMicFhqZS_WZ05KJrz-4" value="" style="line;strokeWidth=1;fillColor=none;align=left;verticalAlign=middle;spacingTop=-1;spacingLeft=3;spacingRight=3;rotatable=0;labelPosition=right;points=[];portConstraint=eastwest;" vertex="1" parent="_BaMicFhqZS_WZ05KJrz-1">
          <mxGeometry y="70" width="140" height="10" as="geometry" />
        </mxCell>
        <mxCell id="_BaMicFhqZS_WZ05KJrz-5" value="operations" style="text;html=1;strokeColor=none;fillColor=none;align=center;verticalAlign=middle;spacingLeft=4;spacingRight=4;overflow=hidden;rotatable=0;points=[[0,0.5],[1,0.5]];portConstraint=eastwest;whiteSpace=wrap;" vertex="1" parent="_BaMicFhqZS_WZ05KJrz-1">
          <mxGeometry y="80" width="140" height="20" as="geometry" />
        </mxCell>
        <mxCell id="_BaMicFhqZS_WZ05KJrz-6" value="- Tạo cv mới&lt;br&gt;- Chỉnh sửa cv&lt;br&gt;- Xem thông tin cv đã tạo" style="text;html=1;strokeColor=none;fillColor=none;align=left;verticalAlign=middle;spacingLeft=4;spacingRight=4;overflow=hidden;rotatable=0;points=[[0,0.5],[1,0.5]];portConstraint=eastwest;whiteSpace=wrap;" vertex="1" parent="_BaMicFhqZS_WZ05KJrz-1">
          <mxGeometry y="100" width="140" height="70" as="geometry" />
        </mxCell>
        <mxCell id="_BaMicFhqZS_WZ05KJrz-7" value="" style="endArrow=block;html=1;rounded=0;align=center;verticalAlign=bottom;endFill=0;labelBackgroundColor=none;endSize=8;" edge="1" parent="1" source="_BaMicFhqZS_WZ05KJrz-1" target="S9iGeUeGR2hdq3TzK3gb-25">
          <mxGeometry relative="1" as="geometry">
            <mxPoint x="-692" y="170" as="sourcePoint" />
            <mxPoint x="-570" y="120" as="targetPoint" />
          </mxGeometry>
        </mxCell>
        <mxCell id="_BaMicFhqZS_WZ05KJrz-8" value="" style="resizable=0;html=1;align=center;verticalAlign=top;labelBackgroundColor=none;" connectable="0" vertex="1" parent="_BaMicFhqZS_WZ05KJrz-7">
          <mxGeometry relative="1" as="geometry" />
        </mxCell>
        <mxCell id="_BaMicFhqZS_WZ05KJrz-9" value="&lt;b&gt;Người ứng tuyển cv&lt;/b&gt;" style="swimlane;fontStyle=0;align=center;verticalAlign=top;childLayout=stackLayout;horizontal=1;startSize=30;horizontalStack=0;resizeParent=1;resizeParentMax=0;resizeLast=0;collapsible=0;marginBottom=0;html=1;whiteSpace=wrap;" vertex="1" parent="1">
          <mxGeometry x="-150" y="-220" width="140" height="180" as="geometry" />
        </mxCell>
        <mxCell id="_BaMicFhqZS_WZ05KJrz-10" value="attributes" style="text;html=1;strokeColor=none;fillColor=none;align=center;verticalAlign=middle;spacingLeft=4;spacingRight=4;overflow=hidden;rotatable=0;points=[[0,0.5],[1,0.5]];portConstraint=eastwest;whiteSpace=wrap;" vertex="1" parent="_BaMicFhqZS_WZ05KJrz-9">
          <mxGeometry y="30" width="140" height="20" as="geometry" />
        </mxCell>
        <mxCell id="_BaMicFhqZS_WZ05KJrz-11" value="&amp;nbsp;" style="text;html=1;strokeColor=none;fillColor=none;align=left;verticalAlign=middle;spacingLeft=4;spacingRight=4;overflow=hidden;rotatable=0;points=[[0,0.5],[1,0.5]];portConstraint=eastwest;whiteSpace=wrap;" vertex="1" parent="_BaMicFhqZS_WZ05KJrz-9">
          <mxGeometry y="50" width="140" height="20" as="geometry" />
        </mxCell>
        <mxCell id="_BaMicFhqZS_WZ05KJrz-12" value="" style="line;strokeWidth=1;fillColor=none;align=left;verticalAlign=middle;spacingTop=-1;spacingLeft=3;spacingRight=3;rotatable=0;labelPosition=right;points=[];portConstraint=eastwest;" vertex="1" parent="_BaMicFhqZS_WZ05KJrz-9">
          <mxGeometry y="70" width="140" height="10" as="geometry" />
        </mxCell>
        <mxCell id="_BaMicFhqZS_WZ05KJrz-13" value="operations" style="text;html=1;strokeColor=none;fillColor=none;align=center;verticalAlign=middle;spacingLeft=4;spacingRight=4;overflow=hidden;rotatable=0;points=[[0,0.5],[1,0.5]];portConstraint=eastwest;whiteSpace=wrap;" vertex="1" parent="_BaMicFhqZS_WZ05KJrz-9">
          <mxGeometry y="80" width="140" height="20" as="geometry" />
        </mxCell>
        <mxCell id="_BaMicFhqZS_WZ05KJrz-14" value="- Ứng tuyển cv&lt;br style=&quot;border-color: var(--border-color);&quot;&gt;- Hủy tham gia cv&lt;br&gt;- Xem thông tin cv đã ứng tuyển." style="text;html=1;strokeColor=none;fillColor=none;align=left;verticalAlign=middle;spacingLeft=4;spacingRight=4;overflow=hidden;rotatable=0;points=[[0,0.5],[1,0.5]];portConstraint=eastwest;whiteSpace=wrap;" vertex="1" parent="_BaMicFhqZS_WZ05KJrz-9">
          <mxGeometry y="100" width="140" height="80" as="geometry" />
        </mxCell>
        <mxCell id="_BaMicFhqZS_WZ05KJrz-15" value="" style="endArrow=block;html=1;rounded=0;align=center;verticalAlign=bottom;endFill=0;labelBackgroundColor=none;endSize=8;" edge="1" parent="1" source="_BaMicFhqZS_WZ05KJrz-9" target="S9iGeUeGR2hdq3TzK3gb-25">
          <mxGeometry relative="1" as="geometry">
            <mxPoint x="-472" y="170" as="sourcePoint" />
            <mxPoint x="-190" y="110" as="targetPoint" />
          </mxGeometry>
        </mxCell>
        <mxCell id="_BaMicFhqZS_WZ05KJrz-16" value="" style="resizable=0;html=1;align=center;verticalAlign=top;labelBackgroundColor=none;" connectable="0" vertex="1" parent="_BaMicFhqZS_WZ05KJrz-15">
          <mxGeometry relative="1" as="geometry" />
        </mxCell>
        <mxCell id="_BaMicFhqZS_WZ05KJrz-19" value="" style="endArrow=none;html=1;rounded=0;" edge="1" parent="1" source="_BaMicFhqZS_WZ05KJrz-1" target="-BAK4BhTOTwu0O0_LGQR-2">
          <mxGeometry relative="1" as="geometry">
            <mxPoint x="-260" y="440" as="sourcePoint" />
            <mxPoint x="-50" y="440" as="targetPoint" />
          </mxGeometry>
        </mxCell>
        <mxCell id="_BaMicFhqZS_WZ05KJrz-20" value="1" style="resizable=0;html=1;whiteSpace=wrap;align=left;verticalAlign=bottom;" connectable="0" vertex="1" parent="_BaMicFhqZS_WZ05KJrz-19">
          <mxGeometry x="-1" relative="1" as="geometry">
            <mxPoint x="10" y="-13" as="offset" />
          </mxGeometry>
        </mxCell>
        <mxCell id="_BaMicFhqZS_WZ05KJrz-21" value="N" style="resizable=0;html=1;whiteSpace=wrap;align=right;verticalAlign=bottom;" connectable="0" vertex="1" parent="_BaMicFhqZS_WZ05KJrz-19">
          <mxGeometry x="1" relative="1" as="geometry">
            <mxPoint x="-12" y="-81" as="offset" />
          </mxGeometry>
        </mxCell>
        <mxCell id="_BaMicFhqZS_WZ05KJrz-22" value="" style="endArrow=none;html=1;rounded=0;" edge="1" parent="1" source="_BaMicFhqZS_WZ05KJrz-9" target="-BAK4BhTOTwu0O0_LGQR-2">
          <mxGeometry relative="1" as="geometry">
            <mxPoint x="-444" y="350" as="sourcePoint" />
            <mxPoint x="-378" y="580" as="targetPoint" />
          </mxGeometry>
        </mxCell>
        <mxCell id="_BaMicFhqZS_WZ05KJrz-23" value="N" style="resizable=0;html=1;whiteSpace=wrap;align=left;verticalAlign=bottom;" connectable="0" vertex="1" parent="_BaMicFhqZS_WZ05KJrz-22">
          <mxGeometry x="-1" relative="1" as="geometry">
            <mxPoint x="10" y="-2" as="offset" />
          </mxGeometry>
        </mxCell>
        <mxCell id="_BaMicFhqZS_WZ05KJrz-24" value="N" style="resizable=0;html=1;whiteSpace=wrap;align=right;verticalAlign=bottom;" connectable="0" vertex="1" parent="_BaMicFhqZS_WZ05KJrz-22">
          <mxGeometry x="1" relative="1" as="geometry">
            <mxPoint x="-20" y="67" as="offset" />
          </mxGeometry>
        </mxCell>
      </root>
    </mxGraphModel>
  </diagram>
</mxfile>
